<?xml version="1.0" standalone="no"?>
<!DOCTYPE svg PUBLIC "-//W3C//DTD SVG 20010904//EN"
 "http://www.w3.org/TR/2001/REC-SVG-20010904/DTD/svg10.dtd">
<svg version="1.0" xmlns="http://www.w3.org/2000/svg"
 width="1024.000000pt" height="1024.000000pt" viewBox="0 0 1024.000000 1024.000000"
 preserveAspectRatio="xMidYMid meet">
<metadata>
Created by potrace 1.16, written by Peter Selinger 2001-2019
</metadata>
<g transform="translate(0.000000,1024.000000) scale(0.100000,-0.100000)"
fill="#000000" stroke="none">
<path d="M0 5120 l0 -5120 5120 0 5120 0 0 5120 0 5120 -5120 0 -5120 0 0
-5120z m4216 2464 c223 -39 412 -140 565 -302 82 -87 158 -201 194 -292 54
-138 58 -164 62 -420 l4 -245 -50 101 c-191 385 -522 586 -966 586 -155 1
-252 -16 -340 -56 -167 -76 -245 -268 -171 -420 29 -59 64 -94 130 -129 38
-20 60 -22 341 -28 365 -9 442 -23 616 -110 212 -105 368 -300 430 -534 17
-65 21 -111 21 -245 1 -186 -12 -247 -79 -370 -148 -273 -397 -457 -704 -521
-90 -18 -126 -20 -274 -16 -185 6 -268 21 -414 77 -108 42 -271 152 -356 242
-38 40 -51 55 -27 33 26 -24 42 -33 42 -24 0 20 -124 142 -135 132 -4 -4 -5
-2 -1 5 4 7 -7 30 -28 55 -84 102 -125 237 -133 427 l-5 135 22 -40 c58 -105
128 -186 232 -269 41 -33 46 -34 41 -15 -4 15 -2 20 5 15 6 -3 13 -2 17 4 4 6
12 7 18 3 7 -4 -17 21 -53 56 l-65 63 65 -57 c219 -191 483 -285 800 -285 336
0 523 119 523 333 1 94 -28 162 -93 220 -78 70 -127 82 -315 80 -88 -2 -214 2
-280 7 -326 26 -582 167 -744 411 -103 153 -135 266 -135 469 1 129 4 155 28
235 82 271 247 470 493 594 219 110 457 142 719 95z m1894 0 c210 -36 387
-104 558 -217 200 -132 359 -311 472 -528 126 -244 169 -410 177 -686 10 -321
-31 -521 -160 -778 -206 -414 -563 -684 -1029 -779 -245 -50 -572 -18 -816 79
-92 37 -151 70 -104 58 l24 -6 -26 27 c-23 26 -29 67 -12 94 3 5 -30 32 -72
60 -109 70 -110 72 -78 127 15 25 29 45 32 45 3 0 2 -5 -1 -10 -6 -9 16 -31
80 -82 19 -15 21 -15 23 0 4 37 8 51 21 66 12 14 11 19 -5 37 -11 12 9 5 51
-21 89 -52 204 -96 319 -123 75 -17 123 -21 271 -20 161 0 190 3 277 26 339
90 610 322 731 625 36 89 40 95 158 209 124 120 239 261 239 291 0 19 -60 90
-219 262 -96 103 -110 122 -130 185 -51 153 -149 310 -267 429 -224 224 -511
328 -859 313 -248 -11 -464 -90 -642 -234 l-51 -42 -36 76 c-20 42 -57 104
-81 138 l-44 63 87 62 c318 226 724 319 1112 254z m-149 -814 c398 -40 745
-229 1082 -592 115 -125 117 -102 -15 -237 -299 -307 -707 -509 -1068 -530
-301 -16 -529 33 -741 162 -70 42 -74 47 -77 83 -1 22 1 34 5 28 12 -17 66
-42 81 -37 6 3 12 0 12 -5 0 -5 11 -9 24 -8 13 0 22 5 19 9 -3 5 -11 6 -17 4
-7 -3 -13 1 -13 8 0 10 14 7 49 -11 144 -73 338 -115 538 -116 403 -1 748 151
1039 458 l81 86 -19 27 c-41 57 -241 239 -329 299 -170 117 -358 192 -567 229
-109 19 -331 13 -445 -11 -146 -32 -306 -95 -395 -156 -68 -47 -54 -29 20 25
36 27 65 50 65 52 0 2 -10 1 -22 -3 -13 -4 -30 -8 -38 -9 -24 -2 -80 -35 -80
-46 0 -6 -4 -7 -10 -4 -5 3 -10 21 -10 40 0 29 7 39 44 64 124 85 316 160 461
180 165 23 197 24 326 11z m-6 -282 c203 -50 337 -286 281 -493 -60 -226 -263
-352 -488 -304 -42 9 -49 13 -33 20 11 4 15 8 9 8 -5 1 -19 9 -30 19 -10 9
-39 30 -63 47 -96 65 -151 172 -151 292 0 48 3 62 13 57 9 -5 9 -4 1 5 -21 23
12 112 68 183 50 64 163 130 245 142 24 4 24 14 -1 20 -14 3 -46 2 -72 -4 -26
-6 -49 -9 -51 -6 -3 2 19 9 49 15 29 6 62 13 73 15 25 5 97 -3 150 -16z
m-3242 -2546 c23 -11 50 -28 60 -40 19 -20 18 -22 -8 -56 -28 -37 -39 -43 -50
-26 -11 17 -77 47 -120 54 -119 20 -218 -64 -173 -147 20 -39 35 -46 218 -102
140 -42 197 -139 158 -269 -47 -154 -302 -196 -482 -77 -22 14 -41 31 -43 36
-1 6 12 28 31 50 l33 39 33 -27 c82 -69 194 -91 272 -53 51 24 74 75 59 126
-14 46 -35 61 -131 90 -130 39 -179 61 -209 96 -31 35 -51 89 -51 137 0 62 52
142 114 174 66 34 206 32 289 -5z m2445 28 c76 -10 172 -54 227 -103 l40 -35
-40 -36 c-22 -19 -44 -35 -48 -36 -5 0 -19 13 -33 29 -69 83 -227 110 -330 58
-101 -51 -156 -144 -156 -264 1 -60 5 -81 28 -124 91 -167 309 -199 459 -68
l35 31 39 -33 c22 -19 40 -37 40 -41 2 -15 -110 -90 -165 -111 -46 -17 -81
-22 -159 -22 -88 0 -107 3 -157 27 -79 37 -120 70 -162 131 -126 184 -59 457
137 558 40 21 129 47 162 48 11 0 48 -4 83 -9z m-1723 -10 c125 -20 206 -106
213 -226 7 -110 -32 -185 -121 -232 -46 -24 -66 -27 -177 -32 l-125 -5 -3
-117 -3 -118 -49 0 -50 0 0 370 0 370 128 0 c70 0 154 -5 187 -10z m1010 -45
l0 -50 -197 -3 -198 -2 0 -105 0 -105 180 0 180 0 0 -50 0 -50 -180 0 -180 0
0 -110 0 -110 200 0 200 0 0 -55 0 -55 -173 0 c-96 0 -208 3 -250 6 l-77 7 0
369 0 368 248 -2 247 -3 0 -50z m1790 0 l0 -50 -127 -3 -128 -3 0 -314 c0
-303 -1 -314 -20 -320 -10 -3 -35 -3 -55 1 l-35 6 0 314 0 313 -122 3 -123 3
-3 39 c-6 70 -25 67 310 64 l303 -3 0 -50z m669 31 c103 -43 156 -123 156
-231 -1 -99 -48 -174 -133 -210 l-38 -16 89 -117 c49 -64 92 -123 96 -129 5
-10 -9 -13 -58 -13 l-66 0 -92 125 -93 124 -67 1 c-47 0 -68 -4 -69 -12 -1 -7
-1 -61 1 -120 2 -100 1 -107 -19 -118 -12 -6 -36 -10 -54 -8 l-32 3 -3 374 -2
374 172 -5 c132 -4 182 -9 212 -22z m878 -239 c58 -144 127 -311 152 -370 l45
-108 -61 3 -61 3 -31 82 c-17 45 -35 86 -41 91 -6 6 -71 8 -157 5 l-147 -6
-32 -88 -32 -89 -59 0 c-44 0 -59 3 -55 13 7 18 234 570 269 655 29 71 30 72
66 72 l37 0 107 -263z m-4065 -758 c66 -25 106 -88 106 -166 0 -164 -207 -225
-306 -91 -32 43 -34 132 -5 183 39 68 133 102 205 74z m561 2 c38 -2 82 -53
82 -96 0 -27 -8 -44 -29 -66 -29 -28 -44 -32 -126 -34 l-40 0 -3 -68 c-3 -64
-4 -68 -25 -65 -21 3 -22 7 -25 158 -1 85 -1 159 2 165 3 9 70 12 164 6z m581
0 c8 -5 11 -16 8 -25 -5 -12 -20 -16 -57 -16 l-50 0 0 -145 c0 -138 -1 -145
-20 -145 -19 0 -20 7 -20 108 0 59 -3 124 -6 145 -7 37 -7 37 -55 37 -46 0
-49 2 -49 25 l0 25 118 0 c64 0 123 -4 131 -9z m336 -161 c0 -163 0 -165 -22
-168 l-23 -3 0 171 0 171 23 -3 c22 -3 22 -5 22 -168z m528 157 c18 -8 38 -21
46 -31 12 -14 12 -18 -4 -30 -16 -11 -23 -11 -49 5 -45 27 -98 24 -135 -7
-118 -99 16 -279 147 -197 18 11 26 12 38 2 21 -17 18 -25 -20 -48 -75 -47
-204 -13 -240 63 -20 42 -21 128 -2 164 41 79 136 113 219 79z m395 -134 l3
-143 74 0 c73 0 75 -1 75 -25 l0 -25 -100 0 -100 0 0 171 0 170 23 -3 c21 -3
22 -6 25 -145z m610 141 c13 -4 22 -14 22 -25 0 -17 -8 -19 -80 -19 l-80 0 0
-50 0 -50 70 0 c63 0 70 -2 70 -20 0 -17 -8 -19 -67 -22 l-68 -3 -3 -47 -3
-47 83 -3 c77 -3 83 -5 86 -25 3 -23 2 -23 -107 -23 l-111 0 0 163 c0 90 3
167 7 170 8 9 150 9 181 1z"/>
<path d="M3289 6763 c-50 -117 -48 -231 7 -342 28 -55 103 -145 138 -163 18
-10 19 -9 8 4 -16 20 -31 69 -39 127 -3 24 -14 58 -23 75 -20 35 -30 68 -60
208 -16 74 -19 102 -10 117 6 12 8 21 5 21 -3 0 -15 -21 -26 -47z"/>
<path d="M4664 5905 c1 -34 -2 -40 -19 -38 -19 1 -20 1 -1 -12 10 -8 23 -12
29 -8 6 3 7 1 4 -4 -4 -6 0 -16 8 -23 9 -7 30 -32 48 -54 l31 -41 -50 47 c-28
25 -69 55 -91 66 l-40 21 9 -47 c5 -26 9 -54 9 -63 0 -9 20 -40 45 -70 54 -66
93 -141 76 -147 -7 -2 -12 -8 -12 -13 0 -6 -9 -19 -20 -31 -11 -12 -20 -31
-21 -42 0 -12 -1 -42 -2 -68 -1 -25 1 -44 6 -41 18 11 -8 -47 -27 -59 -8 -6
-8 -8 0 -8 22 0 96 92 127 158 30 63 32 74 32 182 0 110 -2 119 -32 180 -18
36 -50 85 -72 110 l-39 45 2 -40z"/>
<path d="M5739 6406 c-90 -32 -165 -102 -206 -193 -22 -47 -25 -66 -21 -127 5
-70 29 -141 62 -181 17 -20 17 -19 10 5 -4 14 -8 36 -9 50 -1 14 -3 30 -6 35
-6 11 5 139 15 190 3 17 8 45 10 63 9 68 109 147 195 154 18 1 34 5 36 8 7 11
-51 9 -86 -4z"/>
<path d="M3272 3863 l-53 -4 3 -147 3 -147 105 1 c156 0 209 35 218 138 4 59
-22 108 -73 137 -33 18 -120 28 -203 22z"/>
<path d="M6672 3863 l-53 -4 3 -137 3 -137 113 -3 c88 -2 120 1 147 14 95 45
100 192 8 245 -30 18 -136 28 -221 22z"/>
<path d="M7586 3668 c-26 -68 -50 -131 -53 -140 -5 -16 5 -18 106 -18 l110 0
-28 78 c-46 124 -72 186 -80 195 -4 4 -29 -48 -55 -115z"/>
<path d="M3603 2900 c-32 -13 -63 -68 -63 -111 0 -76 75 -137 145 -118 83 23
115 135 57 200 -21 24 -38 32 -72 35 -25 2 -55 0 -67 -6z"/>
<path d="M4160 2855 l0 -55 53 0 c61 0 97 20 97 55 0 35 -36 55 -97 55 l-53 0
0 -55z"/>
</g>
</svg>
